<svg width="50" height="50" viewBox="0 0 50 50" fill="none" xmlns="http://www.w3.org/2000/svg">
<g clip-path="url(#clip0_1398_2)">
<path d="M50 6.25L48.4521 10.4167H44.4333L37.1958 35.4167H9.61458L0 12.5H35.025L33.85 16.6667H6.26667L12.3854 31.25H34.1104L41.2604 6.25H50ZM17.7083 37.5C15.9833 37.5 14.5833 38.9 14.5833 40.625C14.5833 42.3521 15.9833 43.75 17.7083 43.75C19.4333 43.75 20.8333 42.3521 20.8333 40.625C20.8333 38.9 19.4333 37.5 17.7083 37.5ZM28.125 37.5C26.4 37.5 25 38.8979 25 40.625C25 42.3521 26.4 43.75 28.125 43.75C29.85 43.75 31.25 42.3521 31.25 40.625C31.25 38.9 29.85 37.5 28.125 37.5Z" fill="#C800C8"/>
</g>
<defs>
<clipPath id="clip0_1398_2">
<rect width="50" height="50" fill="white"/>
</clipPath>
</defs>
</svg>
