<svg width="171" height="186" viewBox="0 0 171 186" fill="none" xmlns="http://www.w3.org/2000/svg">
<path d="M163.749 104.257H31.1865C30.3753 104.262 29.5879 104.533 28.9454 105.028C28.3029 105.523 27.8407 106.216 27.6298 106.999L12.81 159.98L7.47488 68.7641C7.44754 68.4941 7.47982 68.2215 7.56945 67.9654C7.65908 67.7093 7.80386 67.4761 7.99357 67.2821C8.18669 67.0869 8.41793 66.9335 8.67289 66.8315C8.92785 66.7295 9.20107 66.6811 9.47555 66.6893H36.7439C37.4624 66.6922 38.1705 66.8608 38.8131 67.1821C39.4557 67.5034 40.0155 67.9687 40.4489 68.5418L49.489 80.1753C49.8302 80.6161 50.2684 80.9723 50.7696 81.2165C51.2707 81.4606 51.8214 81.5861 52.3788 81.5832H133.072V92.698C133.072 93.6806 133.463 94.623 134.158 95.3178C134.852 96.0126 135.795 96.403 136.777 96.403C137.76 96.403 138.702 96.0126 139.397 95.3178C140.092 94.623 140.482 93.6806 140.482 92.698V77.8782C140.492 77.3855 140.404 76.8957 140.222 76.4377C140.04 75.9796 139.769 75.5623 139.424 75.2104C139.079 74.8585 138.667 74.5789 138.213 74.3881C137.758 74.1973 137.27 74.0991 136.777 74.0992H53.7867L45.9322 63.9477C44.8333 62.5413 43.4431 61.3894 41.8571 60.5708C40.2712 59.7522 38.5269 59.2864 36.7439 59.2053H9.47555C8.18244 59.2271 6.90671 59.5071 5.72331 60.0288C4.53991 60.5505 3.4727 61.3034 2.58435 62.2434C1.71148 63.1711 1.03767 64.2676 0.604403 65.4655C0.171134 66.6634 -0.0124332 67.9372 0.0649937 69.2087L7.10439 182.061C7.19904 182.845 7.45108 183.601 7.84538 184.284C8.18638 184.749 8.63303 185.125 9.14842 185.383C9.66382 185.641 10.2331 185.772 10.8093 185.766H136.111C139.256 185.764 142.312 184.714 144.794 182.782C147.277 180.849 149.045 178.145 149.819 175.096L155.302 153.681C155.429 153.195 155.458 152.688 155.389 152.19C155.319 151.692 155.153 151.213 154.898 150.779C154.644 150.346 154.306 149.967 153.905 149.664C153.504 149.361 153.047 149.14 152.56 149.013C152.074 148.887 151.567 148.857 151.069 148.927C150.571 148.996 150.092 149.163 149.659 149.417C149.225 149.672 148.846 150.009 148.543 150.41C148.24 150.811 148.019 151.268 147.892 151.755L142.261 173.244C141.861 174.694 141.002 175.975 139.814 176.897C138.625 177.818 137.17 178.33 135.666 178.356H15.6999L34.0023 111.667H158.933L153.894 130.785C153.649 131.767 153.803 132.807 154.324 133.676C154.846 134.544 155.69 135.17 156.673 135.416C157.656 135.662 158.696 135.507 159.564 134.986C160.433 134.465 161.059 133.62 161.304 132.637L167.528 108.852C167.676 108.304 167.696 107.73 167.586 107.174C167.477 106.618 167.242 106.094 166.898 105.643C166.554 105.192 166.112 104.826 165.605 104.573C165.097 104.32 164.539 104.187 163.972 104.183L163.749 104.257Z" fill="#C800C8"/>
<path d="M82.3149 157.09C81.9677 157.434 81.692 157.844 81.5039 158.295C81.3158 158.747 81.219 159.231 81.219 159.72C81.219 160.209 81.3158 160.694 81.5039 161.145C81.692 161.597 81.9677 162.006 82.3149 162.351C82.6475 162.705 83.0493 162.988 83.4954 163.181C83.9414 163.374 84.4223 163.473 84.9084 163.473C85.3944 163.473 85.8753 163.374 86.3214 163.181C86.7675 162.988 87.1692 162.705 87.5018 162.351C88.78 161.075 90.5122 160.358 92.3183 160.358C94.1243 160.358 95.8566 161.075 97.1347 162.351C97.4673 162.705 97.8691 162.988 98.3151 163.181C98.7612 163.374 99.2421 163.473 99.7282 163.473C100.214 163.473 100.695 163.374 101.141 163.181C101.587 162.988 101.989 162.705 102.322 162.351C102.669 162.006 102.945 161.597 103.133 161.145C103.321 160.694 103.418 160.209 103.418 159.72C103.418 159.231 103.321 158.747 103.133 158.295C102.945 157.844 102.669 157.434 102.322 157.09C101.013 155.768 99.4545 154.719 97.7375 154.003C96.0205 153.286 94.1786 152.918 92.3183 152.918C90.4579 152.918 88.616 153.286 86.899 154.003C85.182 154.719 83.624 155.768 82.3149 157.09Z" fill="#C800C8"/>
<path d="M62.6782 133.896C61.6956 133.896 60.7532 134.287 60.0584 134.982C59.3636 135.676 58.9733 136.619 58.9733 137.601C58.9733 138.584 59.3636 139.526 60.0584 140.221C60.7532 140.916 61.6956 141.306 62.6782 141.306H70.0881C71.0707 141.306 72.0131 140.916 72.7079 140.221C73.4027 139.526 73.793 138.584 73.793 137.601C73.793 136.619 73.4027 135.676 72.7079 134.982C72.0131 134.287 71.0707 133.896 70.0881 133.896H62.6782Z" fill="#C800C8"/>
<path d="M114.547 133.896C113.565 133.896 112.622 134.287 111.928 134.982C111.233 135.676 110.842 136.619 110.842 137.601C110.842 138.584 111.233 139.526 111.928 140.221C112.622 140.916 113.565 141.306 114.547 141.306H121.957C122.94 141.306 123.882 140.916 124.577 140.221C125.272 139.526 125.662 138.584 125.662 137.601C125.662 136.619 125.272 135.676 124.577 134.982C123.882 134.287 122.94 133.896 121.957 133.896H114.547Z" fill="#C800C8"/>
<path d="M81.2032 62.0205C81.0597 62.7233 81.1078 63.4518 81.3424 64.1297C81.5771 64.8076 81.9897 65.4099 82.537 65.8736C83.1916 66.3916 83.9993 66.6782 84.834 66.6887C85.3717 66.8006 85.9266 66.8006 86.4642 66.6887L106.323 56.6854C112.558 58.6338 119.056 59.6086 125.588 59.5752C150.486 59.5752 170.048 46.5338 170.048 29.9357C170.048 16.2274 156.932 4.74206 137.37 1.18531C136.388 1.00844 135.375 1.22916 134.555 1.7989C133.735 2.36865 133.175 3.24075 132.998 4.22337C132.821 5.20598 133.042 6.21861 133.612 7.03849C134.182 7.85836 135.054 8.41833 136.036 8.5952C151.745 10.8923 162.712 19.71 162.712 29.4911C162.712 41.5692 145.743 51.7208 125.663 51.7208C119.416 51.7427 113.209 50.7414 107.286 48.7568C106.844 48.5562 106.364 48.4525 105.878 48.4525C105.392 48.4525 104.912 48.5562 104.47 48.7568L90.4655 56.1667L93.6518 43.1994C93.8015 42.6195 93.8054 42.0115 93.6632 41.4298C93.521 40.848 93.237 40.3104 92.8367 39.8649C90.1839 37.055 88.6774 33.3549 88.6131 29.4911C88.6131 19.5618 100.172 10.5218 116.03 7.92831C117.009 7.76446 117.884 7.22175 118.467 6.41752C119.049 5.61328 119.292 4.61215 119.142 3.63058C118.978 2.65123 118.435 1.77573 117.631 1.19335C116.827 0.610973 115.826 0.368523 114.844 0.518423C95.0597 3.77877 81.2032 15.3382 81.2032 29.417C81.2608 34.346 82.9551 39.1161 86.0196 42.9771L81.2032 62.0205Z" fill="#C800C8"/>
<path d="M117.512 26.5268L120.402 29.4908L117.512 32.3806C116.806 33.089 116.41 34.0482 116.41 35.0482C116.41 36.0482 116.806 37.0074 117.512 37.7158C118.213 38.3775 119.141 38.7461 120.105 38.7461C121.07 38.7461 121.997 38.3775 122.699 37.7158L125.663 34.7518L128.627 37.7158C129.328 38.3775 130.256 38.7461 131.22 38.7461C132.184 38.7461 133.112 38.3775 133.814 37.7158C134.52 37.0074 134.916 36.0482 134.916 35.0482C134.916 34.0482 134.52 33.089 133.814 32.3806L130.924 29.4908L133.814 26.5268C134.161 26.1824 134.437 25.7726 134.625 25.3211C134.813 24.8697 134.91 24.3854 134.91 23.8963C134.91 23.4072 134.813 22.923 134.625 22.4715C134.437 22.02 134.161 21.6102 133.814 21.2658C133.481 20.9114 133.079 20.6289 132.633 20.4358C132.187 20.2427 131.706 20.1431 131.22 20.1431C130.734 20.1431 130.253 20.2427 129.807 20.4358C129.361 20.6289 128.959 20.9114 128.627 21.2658L125.663 24.2298L122.699 21.2658C122.366 20.9114 121.964 20.6289 121.518 20.4358C121.072 20.2427 120.591 20.1431 120.105 20.1431C119.619 20.1431 119.138 20.2427 118.692 20.4358C118.246 20.6289 117.845 20.9114 117.512 21.2658C117.165 21.6102 116.889 22.02 116.701 22.4715C116.513 22.923 116.416 23.4072 116.416 23.8963C116.416 24.3854 116.513 24.8697 116.701 25.3211C116.889 25.7726 117.165 26.1824 117.512 26.5268Z" fill="#C800C8"/>
</svg>
